<svg xmlns="http://www.w3.org/2000/svg" width="512" height="512" fill="none"><g clip-path="url(#C)"><path fill="#fff" d="M0 0h512v512H0z"/><path d="M0 0H220V220H0V0Z" fill="#22ea6c"/><path d="M292 0H512V220H292V0Z" fill="#217c76"/><path d="M0 292H220V512H0V292Z" fill="#22b371"/><path d="M295 292H515V512H295V292Z" fill="#3af287"/><path d="M148 148H364V364H148V148Z" fill="#fff" stroke="#000" stroke-width="4"/><path d="M255.934 288.45c-1.7 0-3.1-.55-4.2-1.65s-1.65-2.55-1.65-4.35c0-4 .95-8.3 2.85-12.9 2-4.6 4.75-8.55 8.25-11.85l8.85-8.4c2.8-2.7 5.05-5.7 6.75-9 1.8-3.3 2.7-7.45 2.7-12.45 0-3.9-.95-7.45-2.85-10.65-1.9-3.3-4.6-5.9-8.1-7.8-3.4-1.9-7.4-2.85-12-2.85-5 0-9.3 1.05-12.9 3.15a21.21 21.21 0 0 0-8.4 8.4c-1.9 3.6-2.85 7.75-2.85 12.45 0 1.7-.55 3.1-1.65 4.2-1 1-2.35 1.5-4.05 1.5s-3.1-.5-4.2-1.5c-1.1-1.1-1.65-2.5-1.65-4.2 0-6.9 1.5-12.95 4.5-18.15 3-5.3 7.15-9.45 12.45-12.45 5.4-3 11.65-4.5 18.75-4.5 6.6 0 12.5 1.45 17.7 4.35 5.2 2.8 9.3 6.7 12.3 11.7 3 4.9 4.5 10.55 4.5 16.95 0 5.6-1 10.35-3 14.25s-4.65 7.5-7.95 10.8c-3.2 3.2-6.75 6.6-10.65 10.2-3.1 2.8-5.15 5.95-6.15 9.45s-1.5 6.6-1.5 9.3c0 1.8-.55 3.25-1.65 4.35s-2.5 1.65-4.2 1.65zm0 26.55c-2.5 0-4.6-.85-6.3-2.55-1.6-1.7-2.4-3.75-2.4-6.15 0-2.5.85-4.6 2.55-6.3s3.75-2.55 6.15-2.55 4.45.85 6.15 2.55c1.8 1.7 2.7 3.8 2.7 6.3 0 2.4-.9 4.45-2.7 6.15-1.7 1.7-3.75 2.55-6.15 2.55z" fill="#000"/><g filter="url(#A)"><path d="M82.921 461c-1.6 0-3-.55-4.2-1.65-1.1-1.1-1.65-2.5-1.65-4.2 0-1.5.55-2.85 1.65-4.05l45.45-53.7c2.5-2.7 4.5-5.7 6-9 1.5-3.4 2.25-6.55 2.25-9.45 0-4.7-.95-8.85-2.85-12.45-1.8-3.6-4.4-6.4-7.8-8.4-3.3-2.1-7.1-3.15-11.4-3.15-4.2 0-8.05 1.1-11.55 3.3-3.4 2.1-6.1 4.95-8.1 8.55-1.9 3.6-2.85 7.65-2.85 12.15 0 1.6-.55 2.95-1.65 4.05s-2.5 1.65-4.2 1.65c-1.6 0-3-.55-4.2-1.65-1.1-1.1-1.65-2.45-1.65-4.05 0-6.7 1.5-12.7 4.5-18s7.05-9.5 12.15-12.6c5.2-3.1 11.05-4.65 17.55-4.65s12.25 1.5 17.25 4.5c5.1 3 9.05 7.15 11.85 12.45 2.9 5.3 4.35 11.4 4.35 18.3 0 3.3-.55 6.45-1.65 9.45-1 3-2.4 5.9-4.2 8.7a73.59 73.59 0 0 1-5.85 7.65l-38.4 44.55h46.95c1.6 0 2.95.6 4.05 1.8 1.2 1.2 1.8 2.55 1.8 4.05 0 1.7-.6 3.1-1.8 4.2-1.1 1.1-2.45 1.65-4.05 1.65h-57.75z" fill="#fff"/></g><g filter="url(#B)"><path d="M409.505 461c-1.6 0-3-.55-4.2-1.65-1.1-1.1-1.65-2.5-1.65-4.2v-97.5l-15 5.25c-1.1.5-2.1.75-3 .75-1.7 0-3.1-.55-4.2-1.65s-1.65-2.45-1.65-4.05c0-1.2.25-2.3.75-3.3.6-1 1.6-1.75 3-2.25l23.1-7.95a8.55 8.55 0 0 1 1.5-.45c.6-.2 1.1-.3 1.5-.3 1.7 0 3.05.6 4.05 1.8 1.1 1.1 1.65 2.45 1.65 4.05v105.6c0 1.7-.55 3.1-1.65 4.2s-2.5 1.65-4.2 1.65z" fill="#fff"/></g></g><defs><filter id="A" x="72.171" y="339.7" width="78.35" height="125.3" filterUnits="userSpaceOnUse" color-interpolation-filters="sRGB"><feFlood flood-opacity="0" result="A"/><feColorMatrix in="SourceAlpha" values="0 0 0 0 0 0 0 0 0 0 0 0 0 0 0 0 0 0 127 0" result="B"/><feOffset/><feGaussianBlur stdDeviation="2"/><feComposite in2="B" operator="out"/><feColorMatrix values="0 0 0 0 0 0 0 0 0 0 0 0 0 0 0 0 0 0 1 0"/><feBlend in2="A"/><feBlend in="SourceGraphic"/></filter><filter id="B" x="375.805" y="339.7" width="43.55" height="125.3" filterUnits="userSpaceOnUse" color-interpolation-filters="sRGB"><feFlood flood-opacity="0" result="A"/><feColorMatrix in="SourceAlpha" values="0 0 0 0 0 0 0 0 0 0 0 0 0 0 0 0 0 0 127 0" result="B"/><feOffset/><feGaussianBlur stdDeviation="2"/><feComposite in2="B" operator="out"/><feColorMatrix values="0 0 0 0 0 0 0 0 0 0 0 0 0 0 0 0 0 0 1 0"/><feBlend in2="A"/><feBlend in="SourceGraphic"/></filter><clipPath id="C"><path fill="#fff" d="M0 0h512v512H0z"/></clipPath></defs></svg>