<svg xmlns="http://www.w3.org/2000/svg" width="32" height="32" viewBox="0 0 32 32" fill="none"><g clip-path="url(#B)"><g filter="url(#A)"><path fill-rule="evenodd" d="M32 0H18.25v9.125h-4.5V0H0v13.75h9.125v4.5H0V32h13.75v-9.125h4.688V32h13.75V18.25h-9.312v-4.5H32V0zm-9.375 9.375H9.375v13.25h13.25V9.375zM4.817 28.884c0 .106.034.194.103.262.075.069.162.103.262.103h3.609c.1 0 .184-.034.253-.103a.34.34 0 0 0 .113-.262.35.35 0 0 0-.113-.253.33.33 0 0 0-.253-.113H5.858l2.4-2.784c.131-.15.253-.309.366-.478a2.42 2.42 0 0 0 .263-.544 1.7 1.7 0 0 0 .103-.591c0-.431-.091-.812-.272-1.144a1.93 1.93 0 0 0-.741-.778c-.312-.187-.672-.281-1.078-.281a2.1 2.1 0 0 0-1.097.291c-.319.194-.572.456-.759.788s-.281.706-.281 1.125c0 .1.034.184.103.253.075.069.162.103.263.103.106 0 .194-.034.263-.103s.103-.153.103-.253a1.6 1.6 0 0 1 .178-.759c.125-.225.294-.403.506-.534a1.33 1.33 0 0 1 .722-.206c.269 0 .506.066.713.197.212.125.375.3.487.525.119.225.178.484.178.778 0 .181-.047.378-.141.591a2.11 2.11 0 0 1-.375.563L4.92 28.631c-.069.075-.103.159-.103.253zm20.777.366c-.1 0-.187-.034-.262-.103-.069-.069-.103-.156-.103-.262v-6.094l-.937.328a.46.46 0 0 1-.187.047c-.106 0-.194-.034-.262-.103s-.103-.153-.103-.253c0-.075.016-.144.047-.206.037-.062.1-.109.188-.141l1.444-.497a.54.54 0 0 1 .094-.028.31.31 0 0 1 .094-.019c.106 0 .191.037.253.112.069.069.103.153.103.253v6.6c0 .106-.034.194-.103.262s-.156.103-.262.103zm-9.861-10.887c.069.069.156.103.263.103s.194-.034.263-.103.103-.159.103-.272c0-.169.031-.362.094-.581a1.26 1.26 0 0 1 .384-.591l.666-.638c.206-.206.372-.431.497-.675s.188-.541.188-.891c0-.4-.094-.753-.281-1.059-.187-.312-.444-.556-.769-.731-.325-.181-.694-.272-1.106-.272-.444 0-.834.094-1.172.281-.331.188-.591.447-.778.778-.187.325-.281.703-.281 1.134 0 .106.034.194.103.263.069.063.156.094.262.094s.191-.031.253-.094c.069-.069.103-.156.103-.263 0-.294.059-.553.178-.778.125-.225.3-.4.525-.525.225-.131.494-.197.806-.197.288 0 .538.059.75.178.219.119.387.281.506.487a1.28 1.28 0 0 1 .178.666c0 .313-.056.572-.169.778a2.14 2.14 0 0 1-.422.562l-.553.525c-.219.206-.391.453-.516.741-.119.287-.178.556-.178.806 0 .113.034.203.103.272zm-.131 1.603c.106.106.238.159.394.159.15 0 .278-.053.384-.159a.51.51 0 0 0 .169-.384.52.52 0 0 0-.169-.394c-.106-.106-.234-.159-.384-.159s-.278.053-.384.159-.159.238-.159.394a.54.54 0 0 0 .15.384z" fill="#000"/></g></g><defs><filter id="A" x="-.25" y="-.25" width="32.688" height="32.5" filterUnits="userSpaceOnUse" color-interpolation-filters="sRGB"><feFlood flood-opacity="0" result="A"/><feColorMatrix in="SourceAlpha" values="0 0 0 0 0 0 0 0 0 0 0 0 0 0 0 0 0 0 127 0" result="B"/><feOffset/><feGaussianBlur stdDeviation=".125"/><feComposite in2="B" operator="out"/><feColorMatrix values="0 0 0 0 0 0 0 0 0 0 0 0 0 0 0 0 0 0 1 0"/><feBlend in2="A"/><feBlend in="SourceGraphic"/></filter><clipPath id="B"><path fill="#fff" d="M0 0h32v32H0z"/></clipPath></defs></svg>